<svg width="174" height="26" viewBox="0 0 174 26" fill="none" xmlns="http://www.w3.org/2000/svg">
<g clip-path="url(#clip0_1448_2032)">
<path d="M9.50048 20.1455C9.42643 20.1447 9.35333 20.1289 9.28566 20.0992C9.21799 20.0695 9.15716 20.0265 9.10691 19.9728L4.40371 14.9103V19.6058C4.40487 19.6763 4.39182 19.7462 4.36531 19.8117C4.3388 19.8771 4.29936 19.9367 4.2493 19.9869C4.19923 20.0371 4.13954 20.077 4.07371 20.1043C4.00787 20.1315 3.93721 20.1455 3.86583 20.1455H0.535767C0.464574 20.1452 0.394144 20.131 0.328562 20.1036C0.26298 20.0763 0.203551 20.0364 0.15372 19.9861C0.103889 19.9359 0.0646485 19.8765 0.0382733 19.8112C0.011898 19.7459 -0.00108699 19.6761 7.11838e-05 19.6058V1.39585C-0.000216538 1.3261 0.0134115 1.25699 0.0401771 1.19245C0.0669428 1.12791 0.106322 1.0692 0.156066 1.01968C0.20581 0.970169 0.264945 0.930812 0.330094 0.903861C0.395244 0.87691 0.465131 0.862893 0.535767 0.86261H3.86583C3.93665 0.862609 4.00677 0.876417 4.07218 0.903241C4.13758 0.930065 4.19697 0.969378 4.24695 1.01892C4.29692 1.06847 4.3365 1.12727 4.3634 1.19195C4.3903 1.25663 4.404 1.32592 4.40371 1.39585V10.4933L8.37005 6.11295C8.41996 6.05681 8.48154 6.01194 8.55058 5.98139C8.61963 5.95084 8.69453 5.93533 8.77018 5.93592H12.953C13.0566 5.93648 13.1578 5.96656 13.2445 6.02255C13.3312 6.07853 13.3996 6.15804 13.4416 6.25152C13.4837 6.345 13.4975 6.44846 13.4814 6.5495C13.4653 6.65053 13.42 6.74482 13.3509 6.82105L7.95899 12.7579L14.0288 19.2453C14.1026 19.3206 14.1522 19.4159 14.1713 19.5191C14.1903 19.6222 14.178 19.7287 14.136 19.8249C14.0939 19.9212 14.0238 20.003 13.9347 20.0601C13.8456 20.1171 13.7414 20.1469 13.6352 20.1455H9.50048Z" fill="#8316B5"/>
<path d="M29.8093 20.2252C29.667 20.2247 29.5308 20.1685 29.4304 20.0689C29.33 19.9694 29.2736 19.8346 29.2736 19.6942V6.57263C29.2736 6.43236 29.3301 6.29782 29.4305 6.19863C29.531 6.09944 29.6672 6.04371 29.8093 6.04371H32.6518C32.7939 6.04371 32.9301 6.09944 33.0306 6.19863C33.131 6.29782 33.1875 6.43236 33.1875 6.57263V6.60502C33.3132 6.49498 33.4461 6.39329 33.5854 6.30062C34.166 5.91166 34.8517 5.70406 35.5533 5.70477C36.1047 5.71602 36.6465 5.84957 37.1385 6.09553C37.256 6.15221 37.3486 6.24924 37.3989 6.36845C37.4492 6.48765 37.4538 6.62088 37.4118 6.74318L36.3754 9.57776C36.3502 9.64859 36.3098 9.71322 36.2569 9.76724C36.2041 9.82126 36.1401 9.8634 36.0693 9.89079C36.0069 9.91628 35.9401 9.92948 35.8725 9.92965C35.789 9.92955 35.7067 9.91034 35.632 9.87352C35.411 9.74429 35.1639 9.66468 34.9083 9.64037C34.7968 9.64037 34.4557 9.64037 34.0796 10.3096C33.8609 10.6831 33.6182 11.5833 33.6182 13.74V14.3704V19.6942C33.6185 19.7638 33.6049 19.8328 33.5781 19.8972C33.5513 19.9616 33.5119 20.0202 33.4621 20.0696C33.4123 20.1189 33.3532 20.1581 33.288 20.1848C33.2229 20.2115 33.1531 20.2252 33.0825 20.2252H29.8093Z" fill="#8316B5"/>
<path d="M39.1099 20.2259C38.9666 20.2259 38.8293 20.1697 38.728 20.0697C38.6267 19.9697 38.5698 19.8341 38.5698 19.6927V6.51069C38.5704 6.36964 38.6275 6.23457 38.7287 6.13503C38.83 6.0355 38.967 5.97961 39.1099 5.97961H42.4684C42.6112 5.97961 42.7482 6.0355 42.8495 6.13503C42.9507 6.23457 43.0078 6.36964 43.0084 6.51069V19.6927C43.0084 19.8341 42.9515 19.9697 42.8502 20.0697C42.749 20.1697 42.6116 20.2259 42.4684 20.2259H39.1099Z" fill="#8316B5"/>
<path d="M46.9946 25.0206C46.9036 25.0207 46.8141 24.9982 46.7342 24.9552C46.6544 24.9122 46.5867 24.8501 46.5376 24.7745C46.4884 24.6994 46.4596 24.6132 46.4539 24.524C46.4481 24.4348 46.4657 24.3456 46.5048 24.265L49.1548 18.68L44.1674 6.71351C44.1336 6.63272 44.1205 6.54492 44.1292 6.45792C44.138 6.37092 44.1684 6.28741 44.2177 6.21479C44.2671 6.14218 44.3338 6.08271 44.412 6.04166C44.4901 6.00062 44.5774 5.97927 44.6659 5.9795H48.0966C48.2033 5.97893 48.3078 6.00986 48.3966 6.06833C48.4855 6.12679 48.5546 6.21013 48.5951 6.30765L51.5972 13.4319L54.9141 6.28174C54.9576 6.18921 55.0271 6.11094 55.1143 6.05622C55.2015 6.0015 55.3028 5.97263 55.4061 5.97303H58.8389C58.9298 5.97311 59.0193 5.99567 59.0991 6.03866C59.179 6.08165 59.2466 6.1437 59.2959 6.21914C59.3444 6.29399 59.3731 6.37971 59.3792 6.46838C59.3853 6.55705 59.3687 6.64581 59.3309 6.72647L50.9456 24.7119C50.9021 24.8044 50.8326 24.8827 50.7454 24.9374C50.6582 24.9921 50.557 25.021 50.4536 25.0206H46.9946Z" fill="#8316B5"/>
<path d="M75.0373 20.2253C74.967 20.225 74.8974 20.211 74.8325 20.1842C74.7676 20.1573 74.7087 20.1181 74.6592 20.0688C74.6096 20.0195 74.5704 19.961 74.5438 19.8968C74.5171 19.8325 74.5035 19.7636 74.5038 19.6942V6.57266C74.5038 6.43276 74.56 6.29855 74.6599 6.19942C74.7599 6.10029 74.8956 6.04431 75.0373 6.04374H77.8798C78.0219 6.04374 78.1581 6.09947 78.2586 6.19866C78.3591 6.29785 78.4155 6.43238 78.4155 6.57266V6.60505C78.5412 6.49501 78.6741 6.39332 78.8134 6.30065C79.3971 5.90961 80.0869 5.70191 80.7922 5.7048C81.3436 5.71656 81.8852 5.85008 82.3775 6.09556C82.499 6.15256 82.5945 6.25245 82.6451 6.37555C82.6957 6.49864 82.6977 6.63598 82.6508 6.76048L81.6144 9.59506C81.5892 9.66561 81.5491 9.73004 81.4967 9.78403C81.4443 9.83802 81.3808 9.88032 81.3104 9.90809C81.2472 9.93339 81.1797 9.94657 81.1115 9.94695C81.028 9.94662 80.9457 9.92742 80.8709 9.89082C80.6505 9.7622 80.4042 9.68263 80.1494 9.65767C80.0357 9.65767 79.6946 9.65767 79.3185 10.3269C79.0999 10.6982 78.8572 11.5985 78.8572 13.7573L78.8681 14.3877V19.6942C78.8684 19.7638 78.8547 19.8328 78.828 19.8973C78.8012 19.9617 78.7618 20.0202 78.712 20.0696C78.6622 20.1189 78.603 20.1581 78.5379 20.1848C78.4728 20.2115 78.4029 20.2253 78.3324 20.2253H75.0373Z" fill="#8316B5"/>
<path d="M40.7204 5.29496C40.4016 5.30054 40.0851 5.24197 39.79 5.12283C39.4949 5.00369 39.2274 4.82647 39.004 4.60197C38.7747 4.38052 38.5934 4.1153 38.4712 3.82246C38.3491 3.52963 38.2886 3.21531 38.2934 2.89864C38.2882 2.58353 38.3487 2.27073 38.4709 1.9796C38.5931 1.68848 38.7746 1.42521 39.004 1.20609C39.4606 0.759174 40.0775 0.508423 40.7204 0.508423C41.3633 0.508423 41.9802 0.759174 42.4368 1.20609C42.6665 1.4251 42.8483 1.6883 42.9709 1.97942C43.0935 2.27054 43.1543 2.58339 43.1496 2.89864C43.154 3.21544 43.0931 3.52982 42.9705 3.82265C42.848 4.11547 42.6664 4.38063 42.4368 4.60197C42.2141 4.82803 41.947 5.00685 41.6519 5.12749C41.3567 5.24813 41.0398 5.30805 40.7204 5.3036" fill="#8316B5"/>
<path d="M68.6566 11.5342C68.4578 11.0316 68.1698 10.5681 67.806 10.1655C67.5527 9.86157 67.2346 9.61657 66.8745 9.4479C66.5143 9.27924 66.1209 9.19106 65.7223 9.18966C64.8477 9.18966 64.0999 9.55235 63.4439 10.295C63.1482 10.6691 62.9149 11.0874 62.753 11.5342H68.6566ZM65.9169 20.4999C63.6801 20.4999 61.8259 19.7875 60.4069 18.3842C58.9878 16.981 58.2706 15.2064 58.2706 13.1058C58.2706 10.9599 58.9856 9.14648 60.3981 7.7238C61.8106 6.30111 63.6079 5.56494 65.7332 5.56494C67.9788 5.56494 69.8395 6.28816 71.2585 7.7238C72.6776 9.15943 73.3926 11.0463 73.3926 13.3627L73.3795 14.0104C73.3766 14.1499 73.3184 14.2828 73.2175 14.3805C73.1165 14.4782 72.9807 14.5329 72.8394 14.5328H62.753C62.9256 15.0394 63.2384 15.4881 63.656 15.8281C64.2376 16.3031 64.9679 16.5341 65.8994 16.5341C66.4289 16.5436 66.955 16.4471 67.4457 16.2505C67.9365 16.0538 68.3819 15.7611 68.755 15.3899C68.8334 15.3132 68.9338 15.2623 69.0426 15.2442C69.1514 15.226 69.2633 15.2415 69.3628 15.2884L72.19 16.5967C72.262 16.6291 72.3259 16.6768 72.3771 16.7364C72.4284 16.7959 72.4658 16.8658 72.4867 16.9412C72.5075 17.0166 72.5113 17.0956 72.4979 17.1726C72.4844 17.2496 72.4539 17.3227 72.4086 17.3868C71.7099 18.3888 70.7629 19.1974 69.658 19.7357C68.4857 20.2669 67.2064 20.5282 65.9169 20.4999Z" fill="#8316B5"/>
<path d="M95.3521 20.226C95.2816 20.2263 95.2117 20.2128 95.1465 20.1864C95.0812 20.1599 95.0219 20.121 94.9719 20.0718C94.9219 20.0227 94.8823 19.9643 94.8552 19.9C94.8282 19.8357 94.8142 19.7667 94.8142 19.6971V13.9502C94.8142 12.0677 94.7071 11.2927 94.6175 10.971C94.5391 10.6205 94.3444 10.306 94.0643 10.0772C93.7788 9.87172 93.4311 9.76818 93.0782 9.78362C92.8254 9.77759 92.5739 9.82104 92.3382 9.91145C92.1026 10.0019 91.8874 10.1374 91.705 10.3104C91.267 10.7419 90.97 11.2931 90.8523 11.8928C90.7911 12.1454 90.7189 12.7909 90.7189 14.4316V19.6971C90.7189 19.7667 90.705 19.8357 90.6779 19.9C90.6509 19.9643 90.6112 20.0227 90.5612 20.0718C90.5113 20.121 90.4519 20.1599 90.3867 20.1864C90.3215 20.2128 90.2516 20.2263 90.181 20.226H86.8378C86.767 20.2266 86.6968 20.2133 86.6312 20.187C86.5655 20.1607 86.5058 20.1219 86.4555 20.0727C86.4051 20.0236 86.365 19.9651 86.3376 19.9007C86.3101 19.8362 86.2959 19.767 86.2956 19.6971V6.57556C86.2959 6.50553 86.3101 6.43625 86.3375 6.37166C86.3649 6.30708 86.405 6.24845 86.4553 6.19914C86.5057 6.14982 86.5654 6.11078 86.631 6.08424C86.6966 6.05771 86.7669 6.0442 86.8378 6.04448H90.181C90.3237 6.04448 90.4605 6.10043 90.5614 6.20003C90.6622 6.29963 90.7189 6.43471 90.7189 6.57556V6.8411C91.1281 6.55282 91.568 6.30958 92.0308 6.11572C92.6958 5.84712 93.407 5.70785 94.1255 5.70554C94.8206 5.69358 95.511 5.82139 96.1545 6.08118C96.798 6.34098 97.3813 6.72733 97.8688 7.21674C98.7434 8.09108 99.1807 9.37559 99.1807 11.0163V19.6971C99.1807 19.7667 99.1668 19.8357 99.1397 19.9C99.1127 19.9643 99.073 20.0227 99.023 20.0718C98.9731 20.121 98.9138 20.1599 98.8485 20.1864C98.7833 20.2128 98.7134 20.2263 98.6428 20.226H95.3521Z" fill="#8316B5"/>
<path d="M116.104 20.2251C115.961 20.2251 115.824 20.1692 115.723 20.0696C115.623 19.97 115.566 19.8349 115.566 19.694V1.44309C115.566 1.30204 115.622 1.16673 115.723 1.06679C115.824 0.966854 115.961 0.910422 116.104 0.909851H119.436C119.507 0.910134 119.577 0.924151 119.642 0.951102C119.707 0.978053 119.766 1.01741 119.816 1.06693C119.865 1.11644 119.905 1.17515 119.932 1.23969C119.958 1.30423 119.972 1.37335 119.972 1.44309V6.00043H121.413C121.555 6.001 121.691 6.05721 121.792 6.15674C121.892 6.25628 121.948 6.39103 121.948 6.53151V9.03578C121.948 9.17589 121.892 9.31032 121.792 9.40979C121.692 9.50926 121.557 9.56572 121.415 9.56686H119.974V19.6919C119.974 19.7615 119.961 19.8305 119.934 19.895C119.907 19.9594 119.868 20.0179 119.818 20.0673C119.768 20.1166 119.709 20.1558 119.644 20.1825C119.579 20.2092 119.509 20.223 119.438 20.223L116.104 20.2251Z" fill="#8316B5"/>
<path d="M110.145 11.5342C109.947 11.0314 109.659 10.5678 109.295 10.1655C109.042 9.86213 108.724 9.61762 108.364 9.44934C108.004 9.28105 107.611 9.19313 107.213 9.19182C106.339 9.19182 105.589 9.55451 104.935 10.2972C104.637 10.6706 104.401 11.0881 104.235 11.5342H110.145ZM107.401 20.4999C105.162 20.4999 103.308 19.7875 101.889 18.3864C100.47 16.9853 99.7529 15.2085 99.7529 13.108C99.7529 10.9621 100.468 9.14864 101.88 7.7238C103.293 6.29895 105.09 5.56494 107.215 5.56494C109.463 5.56494 111.322 6.29032 112.741 7.7238C114.16 9.15728 114.875 11.0463 114.875 13.3627V14.0104C114.871 14.1518 114.81 14.286 114.707 14.3838C114.603 14.4816 114.465 14.5352 114.322 14.5328H104.229C104.402 15.0396 104.716 15.4883 105.134 15.8281C105.713 16.3052 106.446 16.5362 107.377 16.5362C107.907 16.5447 108.433 16.4476 108.923 16.2506C109.414 16.0536 109.859 15.7609 110.233 15.3899C110.333 15.2927 110.468 15.2385 110.609 15.2388C110.689 15.2392 110.768 15.2562 110.841 15.2884L113.668 16.5989C113.739 16.6318 113.802 16.6798 113.853 16.7395C113.904 16.7992 113.941 16.8691 113.961 16.9443C113.981 17.0198 113.984 17.0986 113.97 17.1754C113.956 17.2521 113.925 17.325 113.88 17.389C113.185 18.3917 112.243 19.2036 111.142 19.7486C109.97 20.2791 108.691 20.5397 107.401 20.5107V20.4999Z" fill="#8316B5"/>
<path d="M82.6171 20.4989C82.1359 20.4986 81.6656 20.3574 81.2657 20.093C80.8659 19.8287 80.5544 19.4531 80.3709 19.0139C80.1873 18.5747 80.1399 18.0916 80.2346 17.6258C80.3293 17.1599 80.5619 16.7323 80.9029 16.3971C81.3591 15.9503 81.9757 15.6996 82.6182 15.6996C83.2608 15.6996 83.8773 15.9503 84.3336 16.3971C84.6747 16.7324 84.9073 17.1603 85.002 17.6263C85.0966 18.0923 85.049 18.5756 84.8652 19.0149C84.6813 19.4542 84.3696 19.8298 83.9694 20.0939C83.5692 20.3581 83.0985 20.4991 82.6171 20.4989Z" fill="#8316B5"/>
<path d="M20.3937 16.2786C21.2635 16.2786 22.0978 15.9374 22.7128 15.3301C23.3279 14.7228 23.6735 13.8991 23.6735 13.0403C23.6725 12.4012 23.48 11.7767 23.1202 11.2454C22.7604 10.7141 22.2495 10.2998 21.6517 10.0547C21.0539 9.80954 20.396 9.74453 19.7609 9.86784C19.1258 9.99114 18.5418 10.2972 18.0826 10.7476C17.7778 11.0483 17.536 11.4054 17.371 11.7984C17.2061 12.1914 17.1212 12.6127 17.1212 13.0381C17.1212 13.4636 17.2061 13.8848 17.371 14.2779C17.536 14.6709 17.7778 15.028 18.0826 15.3287C18.3823 15.6343 18.7421 15.8762 19.1399 16.0395C19.5377 16.2029 19.9651 16.2842 20.3959 16.2786M19.7793 20.4991C17.9164 20.4991 16.2809 19.7738 14.9296 18.3403C13.5783 16.9068 12.9005 15.1495 12.9005 13.0576C12.9005 10.8987 13.5565 9.08744 14.8684 7.69066C15.4687 7.01649 16.2091 6.47796 17.0392 6.11176C17.8693 5.74555 18.7696 5.56026 19.6787 5.5685C20.524 5.56365 21.3613 5.73045 22.1385 6.05856C22.5594 6.23966 22.9589 6.46552 23.3302 6.73212V6.43852C23.3302 6.29767 23.3869 6.16259 23.4877 6.06299C23.5886 5.96339 23.7254 5.90744 23.8681 5.90744H27.2069C27.2774 5.90744 27.3473 5.92119 27.4124 5.94791C27.4775 5.97462 27.5367 6.01378 27.5864 6.06312C27.6362 6.11246 27.6756 6.17103 27.7024 6.23545C27.7292 6.29987 27.7429 6.36888 27.7426 6.43852V19.6248C27.7432 19.6946 27.7297 19.7639 27.7031 19.8285C27.6764 19.8932 27.637 19.952 27.5872 20.0016C27.5374 20.0512 27.4782 20.0905 27.4129 20.1174C27.3476 20.1442 27.2776 20.158 27.2069 20.158H23.8724C23.8016 20.158 23.7315 20.1442 23.6661 20.1174C23.6007 20.0906 23.5413 20.0513 23.4913 20.0017C23.4414 19.9522 23.4018 19.8934 23.3749 19.8287C23.348 19.764 23.3343 19.6947 23.3346 19.6248V19.3657C22.9573 19.6392 22.5494 19.8689 22.1189 20.0501C21.3771 20.3524 20.5817 20.505 19.7793 20.4991Z" fill="#8316B5"/>
<path d="M169.505 1.81434H165.329C165.251 1.81434 165.175 1.78308 165.12 1.72743C165.064 1.67178 165.033 1.59631 165.033 1.51761C165.033 1.43891 165.064 1.36344 165.12 1.3078C165.175 1.25215 165.251 1.22089 165.329 1.22089H169.505C169.584 1.22089 169.659 1.25215 169.715 1.3078C169.771 1.36344 169.802 1.43891 169.802 1.51761C169.802 1.59631 169.771 1.67178 169.715 1.72743C169.659 1.78308 169.584 1.81434 169.505 1.81434Z" fill="#FF9B0F"/>
<path d="M160.524 5.64591H159.288C159.213 5.63954 159.144 5.60541 159.093 5.55026C159.042 5.49511 159.014 5.42297 159.014 5.3481C159.014 5.27323 159.042 5.20108 159.093 5.14594C159.144 5.09079 159.213 5.05666 159.288 5.05029H160.524C160.599 5.05666 160.668 5.09079 160.719 5.14594C160.77 5.20108 160.798 5.27323 160.798 5.3481C160.798 5.42297 160.77 5.49511 160.719 5.55026C160.668 5.60541 160.599 5.63954 160.524 5.64591Z" fill="#8316B5"/>
<path d="M147.022 20.4281H133.561C133.482 20.4281 133.407 20.3968 133.351 20.3411C133.296 20.2855 133.264 20.21 133.264 20.1313C133.264 20.0526 133.296 19.9772 133.351 19.9215C133.407 19.8659 133.482 19.8346 133.561 19.8346H147.022C147.101 19.8346 147.176 19.8659 147.232 19.9215C147.287 19.9772 147.319 20.0526 147.319 20.1313C147.319 20.21 147.287 20.2855 147.232 20.3411C147.176 20.3968 147.101 20.4281 147.022 20.4281Z" fill="#DE4747"/>
<path d="M133.562 16.7549C133.522 16.754 133.481 16.745 133.444 16.7282C133.407 16.7115 133.374 16.6874 133.346 16.6574C133.293 16.5987 133.266 16.5215 133.27 16.4429C133.274 16.3642 133.309 16.2903 133.367 16.2372L140.625 9.67678C141.028 9.29719 141.38 8.8686 141.676 8.40107C141.927 7.98989 142.058 7.51629 142.053 7.0344C142.065 6.77603 142.023 6.518 141.929 6.27673C141.836 6.03547 141.694 5.81626 141.511 5.63308C141.078 5.26789 140.523 5.07992 139.957 5.10683C139.391 5.13374 138.856 5.37355 138.459 5.77819C138.016 6.30559 137.752 6.96015 137.706 7.64735C137.703 7.6866 137.691 7.72478 137.673 7.75946C137.654 7.79414 137.628 7.82455 137.597 7.84877C137.568 7.87355 137.533 7.89206 137.496 7.90323C137.459 7.91439 137.419 7.91796 137.381 7.91375C137.302 7.90501 137.231 7.86584 137.181 7.80468C137.131 7.74352 137.107 7.66525 137.114 7.58671C137.173 6.77426 137.489 6.00173 138.018 5.38184C138.522 4.85438 139.211 4.54195 139.94 4.50967C140.669 4.47739 141.382 4.72775 141.931 5.20857C142.17 5.44721 142.357 5.73249 142.481 6.04662C142.605 6.36075 142.662 6.697 142.65 7.0344C142.656 7.6263 142.496 8.20794 142.187 8.71296C141.863 9.22535 141.476 9.69474 141.035 10.11L133.762 16.6769C133.707 16.7266 133.636 16.7544 133.562 16.7549Z" fill="#49CA77"/>
<path d="M133.562 16.9714C133.459 16.9715 133.357 16.9402 133.272 16.8814C133.186 16.8227 133.12 16.7394 133.083 16.6425C133.045 16.5456 133.038 16.4397 133.063 16.3387C133.087 16.2377 133.141 16.1464 133.218 16.0769L140.474 9.51428C140.861 9.14954 141.201 8.7377 141.485 8.28839C141.715 7.91086 141.834 7.47636 141.83 7.03434C141.841 6.80503 141.805 6.57584 141.723 6.36139C141.641 6.14695 141.515 5.95198 141.353 5.78896C141.175 5.62705 140.966 5.50215 140.738 5.42148C140.511 5.3408 140.27 5.30597 140.03 5.31897C139.763 5.30846 139.498 5.35721 139.252 5.4617C139.007 5.5662 138.788 5.72384 138.611 5.92325C138.197 6.4161 137.952 7.02869 137.911 7.67111C137.905 7.73848 137.884 7.8038 137.852 7.86329C137.82 7.92278 137.776 7.97525 137.723 8.01766C137.671 8.06053 137.611 8.09243 137.546 8.11141C137.481 8.13039 137.413 8.13608 137.346 8.12812C137.279 8.12136 137.214 8.10141 137.155 8.0694C137.095 8.0374 137.043 7.99398 137.001 7.94164C136.958 7.8893 136.926 7.82907 136.907 7.76443C136.888 7.69979 136.882 7.63201 136.889 7.56499C136.95 6.70615 137.285 5.88969 137.847 5.23667C138.39 4.66501 139.134 4.32656 139.922 4.29262C140.709 4.25868 141.48 4.53191 142.07 5.05473C142.331 5.31256 142.535 5.62155 142.67 5.96225C142.806 6.30295 142.869 6.66798 142.856 7.03434C142.862 7.66681 142.69 8.28825 142.36 8.82769C142.026 9.35475 141.627 9.8379 141.173 10.2658L133.911 16.8393C133.815 16.9251 133.691 16.9722 133.562 16.9714ZM140.03 4.8858C140.327 4.87181 140.623 4.91708 140.903 5.01897C141.182 5.12086 141.438 5.27732 141.656 5.47924C141.86 5.68186 142.019 5.92488 142.124 6.19269C142.228 6.4605 142.276 6.74718 142.263 7.03434C142.268 7.55677 142.126 8.07011 141.853 8.51581C141.549 8.99837 141.185 9.44078 140.77 9.83267L133.508 16.391C133.493 16.4063 133.485 16.4269 133.485 16.4484C133.485 16.4698 133.493 16.4904 133.508 16.5057C133.524 16.5202 133.544 16.5282 133.566 16.5282C133.587 16.5282 133.607 16.5202 133.623 16.5057L140.885 9.93879C141.308 9.53817 141.679 9.08634 141.99 8.59378C142.279 8.12311 142.429 7.58024 142.423 7.02785C142.435 6.71981 142.384 6.41259 142.272 6.1253C142.16 5.83801 141.99 5.57681 141.773 5.35796C141.267 4.91761 140.611 4.68885 139.941 4.71909C139.271 4.74933 138.638 5.03626 138.174 5.5204C137.675 6.1053 137.377 6.83495 137.325 7.60181C137.323 7.61235 137.324 7.62301 137.327 7.63319C137.33 7.64338 137.335 7.65287 137.342 7.66113C137.348 7.66939 137.357 7.67625 137.366 7.68131C137.375 7.68637 137.385 7.68953 137.396 7.69061C137.406 7.69221 137.417 7.69149 137.427 7.6885C137.437 7.6855 137.447 7.68031 137.454 7.67328C137.463 7.66691 137.47 7.65879 137.475 7.64945C137.481 7.64012 137.484 7.62979 137.485 7.61914C137.534 6.8857 137.818 6.1874 138.293 5.62652C138.51 5.38283 138.778 5.19009 139.078 5.06205C139.379 4.93401 139.704 4.87383 140.03 4.8858Z" fill="#49CA77"/>
<path d="M147.022 16.5901H139.424C139.363 16.5903 139.304 16.5722 139.255 16.5381C139.205 16.5041 139.166 16.4558 139.144 16.3995C139.124 16.3429 139.12 16.2813 139.134 16.2227C139.149 16.164 139.18 16.111 139.225 16.0703L143.537 12.2324C143.948 11.8555 144.356 11.4656 144.748 11.0758C145.124 10.6986 145.464 10.2858 145.761 9.84339C146.055 9.40652 146.286 8.93134 146.45 8.43124C146.622 7.87889 146.705 7.30288 146.697 6.72453C146.716 5.8991 146.534 5.08145 146.166 4.34206C145.822 3.68017 145.335 3.10366 144.739 2.65484C144.121 2.19583 143.423 1.85512 142.681 1.64987C141.895 1.42992 141.081 1.31915 140.264 1.32066C139.417 1.31595 138.574 1.44908 137.769 1.71485C137.013 1.96362 136.31 2.34985 135.694 2.8541C135.088 3.35665 134.582 3.96867 134.202 4.65828C133.795 5.40697 133.544 6.22967 133.461 7.07757C133.457 7.11639 133.445 7.154 133.426 7.18823C133.407 7.22247 133.382 7.25267 133.352 7.2771C133.321 7.30154 133.286 7.31973 133.249 7.33065C133.211 7.34156 133.172 7.34499 133.133 7.34072C133.094 7.33645 133.057 7.32458 133.022 7.30578C132.988 7.28698 132.958 7.26163 132.934 7.23116C132.909 7.20069 132.891 7.16571 132.88 7.1282C132.869 7.0907 132.866 7.05142 132.87 7.01259C132.965 6.08438 133.245 5.18456 133.693 4.36589C134.109 3.61058 134.664 2.94045 135.328 2.3906C136 1.8405 136.767 1.41904 137.592 1.14739C138.456 0.857794 139.363 0.711475 140.275 0.71421C141.146 0.713029 142.014 0.831825 142.852 1.06725C143.665 1.29223 144.43 1.66522 145.107 2.16751C145.773 2.66949 146.319 3.31405 146.703 4.054C147.117 4.87997 147.323 5.79443 147.303 6.71803C147.311 7.35987 147.217 7.99889 147.024 8.61101C146.845 9.16275 146.59 9.68687 146.266 10.1683C145.948 10.642 145.585 11.0843 145.183 11.4895C144.784 11.8858 144.371 12.2822 143.951 12.6677L140.219 15.9902H147.037C147.116 15.9902 147.191 16.0214 147.247 16.0771C147.302 16.1327 147.334 16.2082 147.334 16.2869C147.334 16.3656 147.302 16.4411 147.247 16.4967C147.191 16.5524 147.116 16.5836 147.037 16.5836L147.022 16.5901Z" fill="#8316B5"/>
<path d="M147.022 16.8067H139.424C139.32 16.8069 139.218 16.7754 139.133 16.7164C139.047 16.6574 138.981 16.5737 138.944 16.4764C138.907 16.3791 138.9 16.2729 138.925 16.1717C138.949 16.0705 139.004 15.9793 139.082 15.91L143.394 12.0721C143.799 11.6996 144.204 11.3119 144.594 10.922C144.962 10.5551 145.292 10.1532 145.582 9.72212C145.864 9.30217 146.087 8.84518 146.245 8.36411C146.408 7.83323 146.488 7.28003 146.481 6.72454C146.5 5.93228 146.326 5.14721 145.974 4.43737C145.645 3.80416 145.179 3.25274 144.609 2.82379C144.013 2.38042 143.34 2.0521 142.623 1.85565C141.856 1.64005 141.062 1.53145 140.265 1.53293C139.441 1.52801 138.621 1.6575 137.839 1.91629C137.108 2.15641 136.428 2.52942 135.833 3.01655C135.248 3.5027 134.759 4.09405 134.391 4.76009C133.999 5.483 133.756 6.2768 133.676 7.0949C133.67 7.16311 133.651 7.22944 133.619 7.29002C133.587 7.35059 133.543 7.40417 133.49 7.44761C133.437 7.49106 133.376 7.52348 133.311 7.54297C133.245 7.56247 133.176 7.56864 133.108 7.56113C133.04 7.55362 132.974 7.53258 132.915 7.49924C132.855 7.4659 132.802 7.42094 132.76 7.367C132.718 7.31307 132.687 7.25124 132.669 7.18517C132.651 7.1191 132.647 7.05012 132.656 6.98228C132.789 5.61175 133.319 4.30986 134.182 3.23667C135.044 2.16349 136.202 1.36579 137.512 0.941644C138.4 0.648943 139.33 0.50264 140.265 0.508468C141.156 0.506958 142.044 0.628673 142.903 0.870167C143.741 1.10179 144.529 1.48658 145.227 2.00509C145.919 2.52629 146.486 3.19608 146.886 3.96521C147.315 4.82212 147.529 5.77067 147.509 6.72888C147.517 7.39331 147.42 8.05477 147.221 8.689C147.034 9.25948 146.77 9.80165 146.435 10.3004C146.108 10.7859 145.734 11.2385 145.32 11.6519C144.921 12.0526 144.503 12.4511 144.083 12.8388L140.774 15.7844H147.022C147.158 15.7844 147.289 15.8385 147.385 15.9348C147.481 16.031 147.535 16.1616 147.535 16.2977C147.535 16.4339 147.481 16.5644 147.385 16.6607C147.289 16.757 147.158 16.811 147.022 16.811V16.8067ZM140.265 1.09975C141.102 1.10079 141.935 1.21741 142.74 1.44629C143.508 1.65863 144.23 2.01109 144.869 2.48591C145.491 2.95315 145.999 3.55422 146.357 4.24461C146.738 5.01468 146.926 5.86572 146.905 6.72454C146.913 7.32569 146.826 7.92429 146.647 8.4984C146.478 9.01789 146.238 9.51137 145.933 9.9647C145.627 10.4183 145.278 10.8411 144.891 11.2274C144.497 11.6216 144.087 12.0136 143.676 12.3927L139.361 16.2328C139.349 16.2435 139.34 16.2579 139.336 16.2739C139.332 16.2899 139.333 16.3068 139.339 16.3222C139.345 16.3376 139.355 16.3508 139.369 16.36C139.383 16.3692 139.399 16.3739 139.416 16.3735H147.013C147.035 16.373 147.055 16.3644 147.07 16.3495C147.084 16.3345 147.093 16.3145 147.094 16.2934C147.094 16.2721 147.085 16.2518 147.07 16.2367C147.055 16.2217 147.035 16.2133 147.013 16.2133H139.634L143.791 12.5118C144.206 12.1327 144.618 11.7364 145.014 11.3422C145.409 10.9484 145.764 10.5176 146.076 10.0557C146.388 9.58995 146.634 9.08341 146.808 8.55038C146.993 7.95973 147.084 7.34351 147.076 6.72454C147.095 5.83635 146.897 4.95694 146.5 4.16231C146.131 3.45046 145.607 2.8303 144.967 2.3473C144.312 1.86234 143.574 1.50118 142.79 1.28168C141.97 1.05229 141.122 0.936419 140.271 0.937308C139.382 0.933464 138.499 1.07391 137.655 1.35316C136.856 1.61712 136.112 2.02527 135.461 2.55739C134.789 3.10942 134.234 3.78882 133.827 4.55643C133.419 5.32404 133.168 6.16469 133.087 7.02993C133.085 7.04035 133.086 7.05096 133.089 7.06114C133.091 7.07131 133.096 7.08083 133.103 7.08913C133.109 7.09742 133.117 7.10433 133.126 7.10941C133.136 7.1145 133.146 7.11767 133.156 7.11873C133.167 7.12037 133.178 7.11967 133.188 7.11668C133.199 7.11369 133.209 7.10847 133.217 7.1014C133.234 7.088 133.244 7.06857 133.247 7.04725C133.332 6.17196 133.592 5.32267 134.012 4.54999C134.405 3.83593 134.93 3.20252 135.558 2.68301C136.193 2.16125 136.919 1.76175 137.7 1.50477C138.527 1.23225 139.394 1.09547 140.265 1.09975Z" fill="#8316B5"/>
<path d="M146.732 16.3714C146.724 16.3553 146.717 16.3387 146.71 16.3216C146.697 16.2848 146.692 16.2458 146.694 16.2068C146.696 16.1678 146.706 16.1296 146.723 16.0944C146.74 16.0592 146.763 16.0277 146.792 16.0017C146.822 15.9756 146.855 15.9555 146.892 15.9426C146.929 15.9296 146.968 15.9241 147.007 15.9262C147.046 15.9284 147.084 15.9382 147.12 15.9551C147.155 15.9719 147.186 15.9956 147.212 16.0247C147.238 16.0538 147.258 16.0877 147.271 16.1245V16.1462C147.271 16.1635 147.287 16.1808 147.291 16.1917C147.483 16.7363 147.758 17.2478 148.107 17.7078C148.531 18.2651 149.048 18.7444 149.636 19.1243C150.254 19.5204 150.927 19.8226 151.633 20.0209C152.389 20.2349 153.172 20.3421 153.957 20.3393C154.827 20.3394 155.692 20.2065 156.522 19.9451C156.559 19.9332 156.598 19.9288 156.637 19.9321C156.677 19.9355 156.714 19.9465 156.749 19.9646C156.784 19.9822 156.815 20.0066 156.84 20.0364C156.866 20.0661 156.885 20.1006 156.897 20.1379C156.92 20.2131 156.912 20.2945 156.876 20.3642C156.839 20.434 156.777 20.4865 156.702 20.5104C155.002 21.0441 153.184 21.0727 151.469 20.5927C150.702 20.3792 149.972 20.0522 149.303 19.6224C148.657 19.2058 148.089 18.6795 147.624 18.0673C147.24 17.5601 146.936 16.9969 146.723 16.3974" fill="#8316B5"/>
<path d="M153.966 21.1559C153.105 21.1595 152.247 21.0422 151.419 20.8072C150.635 20.5869 149.888 20.2511 149.203 19.8109C148.537 19.3806 147.95 18.8375 147.47 18.206C147.071 17.6798 146.756 17.0954 146.535 16.4733L146.944 16.326C147.148 16.9053 147.44 17.4496 147.81 17.9396C148.26 18.5312 148.81 19.0399 149.435 19.4427C150.084 19.8596 150.791 20.1778 151.533 20.387C153.208 20.8546 154.982 20.8268 156.641 20.3069C156.661 20.3 156.677 20.2855 156.687 20.2665C156.697 20.2475 156.699 20.2255 156.693 20.2051C156.69 20.1952 156.685 20.1861 156.678 20.1782C156.671 20.1704 156.663 20.164 156.654 20.1596C156.644 20.1554 156.634 20.1533 156.623 20.1533C156.613 20.1533 156.602 20.1554 156.593 20.1596C155.742 20.4286 154.854 20.5652 153.961 20.5646C153.156 20.5675 152.354 20.4574 151.579 20.2376C150.852 20.0334 150.159 19.7224 149.523 19.3149C148.915 18.9208 148.38 18.4248 147.94 17.8486C147.58 17.3714 147.294 16.8418 147.093 16.2784L147.07 16.2199C147.067 16.2088 147.062 16.1984 147.055 16.1894C147.048 16.1804 147.039 16.1728 147.029 16.1673C147.019 16.1618 147.008 16.1585 146.997 16.1575C146.986 16.1564 146.974 16.1578 146.963 16.1614C146.953 16.1646 146.944 16.1698 146.936 16.1767C146.928 16.1836 146.921 16.192 146.917 16.2016C146.912 16.2111 146.909 16.2215 146.909 16.2321C146.908 16.2427 146.91 16.2533 146.914 16.2632C146.917 16.2766 146.923 16.2897 146.929 16.3022L146.528 16.4668C146.519 16.4463 146.511 16.4253 146.504 16.404C146.482 16.3403 146.473 16.2728 146.476 16.2055C146.48 16.1381 146.497 16.0722 146.527 16.0114C146.556 15.9507 146.597 15.8963 146.648 15.8515C146.698 15.8066 146.757 15.7721 146.82 15.7499C146.884 15.7277 146.952 15.7183 147.019 15.7222C147.086 15.7261 147.152 15.7432 147.213 15.7725C147.274 15.8019 147.328 15.8429 147.373 15.8933C147.418 15.9437 147.452 16.0024 147.475 16.0661V16.0769C147.475 16.0964 147.492 16.1181 147.496 16.1311C147.681 16.6537 147.946 17.1446 148.28 17.5865C148.689 18.1234 149.188 18.5851 149.755 18.9511C150.358 19.3357 151.015 19.6278 151.704 19.8174C152.441 20.0264 153.203 20.1307 153.968 20.1271C154.816 20.1278 155.659 19.9978 156.467 19.7416C156.594 19.7102 156.729 19.7284 156.843 19.7925C156.957 19.8567 157.043 19.9619 157.082 20.0869C157.122 20.2118 157.112 20.3471 157.056 20.4652C156.999 20.5834 156.899 20.6754 156.777 20.7227C155.868 21.0102 154.919 21.1563 153.966 21.1559Z" fill="#8316B5"/>
<path d="M153.914 17.1942C153.159 17.2085 152.421 16.964 151.824 16.5011C151.252 16.0559 150.836 15.4421 150.633 14.7468C150.613 14.6741 150.622 14.5969 150.656 14.5302C150.675 14.4955 150.7 14.465 150.73 14.4404C150.761 14.4158 150.796 14.3977 150.834 14.3872C150.909 14.365 150.99 14.3735 151.059 14.4109C151.128 14.4482 151.18 14.5114 151.202 14.5865C151.37 15.1643 151.716 15.674 152.192 16.042C152.698 16.4184 153.315 16.6177 153.946 16.6091C154.577 16.6005 155.187 16.3845 155.683 15.9943C156.169 15.5936 156.405 15.0067 156.405 14.1988C156.42 13.7755 156.318 13.3562 156.108 12.9881C155.941 12.6652 155.681 12.3991 155.363 12.2235C153.756 11.5478 152.656 12.4553 152.645 12.4639C152.588 12.5114 152.517 12.5368 152.443 12.5354L148.328 12.4704C148.288 12.4707 148.247 12.4625 148.21 12.4465C148.173 12.4305 148.139 12.4069 148.112 12.3773C148.084 12.3485 148.063 12.3145 148.049 12.2773C148.035 12.24 148.029 12.2004 148.031 12.1607L148.478 1.51109C148.481 1.43466 148.514 1.36249 148.569 1.30962C148.624 1.25675 148.698 1.22728 148.774 1.22736H163.753C163.792 1.22736 163.831 1.23504 163.867 1.24995C163.903 1.26486 163.936 1.28671 163.963 1.31427C163.991 1.34182 164.013 1.37453 164.028 1.41053C164.043 1.44653 164.05 1.48511 164.05 1.52408C164.05 1.56305 164.043 1.60164 164.028 1.63764C164.013 1.67364 163.991 1.70635 163.963 1.7339C163.936 1.76145 163.903 1.78331 163.867 1.79822C163.831 1.81313 163.792 1.82081 163.753 1.82081H149.071L148.649 11.8792L152.348 11.9376C152.72 11.6669 153.918 10.9695 155.597 11.6756C156.032 11.8928 156.388 12.2413 156.615 12.6719C156.881 13.1317 157.015 13.6566 157 14.188C157 15.1713 156.686 15.9207 156.065 16.4405C155.461 16.9413 154.698 17.2088 153.914 17.1942Z" fill="#8316B5"/>
<path d="M153.914 17.4108C153.11 17.4263 152.325 17.1648 151.691 16.6701C151.083 16.1991 150.64 15.5479 150.424 14.8096C150.405 14.7449 150.399 14.6771 150.406 14.6099C150.413 14.5428 150.433 14.4777 150.465 14.4184C150.497 14.3591 150.541 14.3066 150.593 14.2641C150.646 14.2216 150.706 14.1899 150.771 14.1707C150.836 14.1515 150.903 14.1452 150.971 14.1522C151.038 14.1593 151.103 14.1795 151.162 14.2116C151.221 14.2438 151.274 14.2874 151.316 14.3398C151.359 14.3922 151.391 14.4525 151.41 14.5172C151.566 15.051 151.886 15.5219 152.326 15.8622C152.794 16.2086 153.362 16.3919 153.944 16.3841C154.525 16.3763 155.089 16.1777 155.547 15.8189C155.98 15.4616 156.196 14.9287 156.196 14.1902C156.211 13.8068 156.12 13.4267 155.932 13.0921C155.786 12.8082 155.56 12.5732 155.282 12.4163C153.814 11.7969 152.826 12.5874 152.785 12.6329C152.688 12.7154 152.564 12.7586 152.436 12.7542L148.334 12.6892C148.266 12.6881 148.198 12.6733 148.135 12.6457C148.073 12.618 148.016 12.5781 147.969 12.5282C147.922 12.4783 147.885 12.4196 147.862 12.3553C147.838 12.2911 147.827 12.2227 147.83 12.1543L148.276 1.50679C148.282 1.37462 148.339 1.24986 148.434 1.15834C148.53 1.06682 148.657 1.01555 148.789 1.01514H163.768C163.904 1.01514 164.035 1.06922 164.131 1.16548C164.228 1.26175 164.282 1.39231 164.282 1.52845C164.282 1.66459 164.228 1.79515 164.131 1.89142C164.035 1.98768 163.904 2.04176 163.768 2.04176H149.287L148.882 11.6713L152.291 11.7232C152.725 11.433 153.979 10.7616 155.685 11.4785C156.163 11.7127 156.554 12.0917 156.803 12.5614C157.093 13.0574 157.237 13.6247 157.221 14.1988C157.221 15.2493 156.881 16.0637 156.207 16.6181C155.562 17.1485 154.748 17.4298 153.914 17.4108ZM150.918 14.5822H150.894C150.884 14.5851 150.875 14.5901 150.867 14.5968C150.858 14.6035 150.852 14.6118 150.847 14.6212C150.842 14.6307 150.84 14.6411 150.84 14.6515C150.84 14.662 150.842 14.6723 150.847 14.6818C151.037 15.3338 151.428 15.9091 151.964 16.3257C152.539 16.7559 153.239 16.9838 153.956 16.974C154.674 16.9642 155.368 16.7172 155.93 16.2716C156.5 15.8016 156.796 15.0999 156.796 14.1859C156.812 13.6921 156.69 13.2037 156.443 12.7759C156.238 12.3846 155.918 12.0661 155.525 11.864C153.937 11.1948 152.802 11.877 152.493 12.1023L152.434 12.1434L148.421 12.0871L148.854 1.59776H163.755C163.766 1.59805 163.777 1.59618 163.787 1.59229C163.797 1.58839 163.806 1.58253 163.813 1.57506C163.821 1.56759 163.827 1.55866 163.831 1.54879C163.836 1.53893 163.838 1.52832 163.838 1.51762C163.837 1.49617 163.828 1.47579 163.813 1.46082C163.797 1.44585 163.777 1.43747 163.755 1.43748H148.787C148.766 1.43747 148.746 1.44562 148.731 1.46018C148.716 1.47475 148.707 1.49458 148.707 1.51545L148.261 12.1629C148.26 12.1736 148.261 12.1844 148.265 12.1945C148.269 12.2046 148.275 12.2137 148.282 12.2214C148.298 12.2366 148.319 12.2451 148.341 12.2452L152.456 12.3102C152.477 12.3114 152.497 12.3044 152.512 12.2907C152.525 12.2799 153.725 11.2857 155.458 12.0156C155.819 12.2068 156.113 12.5028 156.303 12.8647C156.534 13.2672 156.648 13.7263 156.632 14.1902C156.632 15.0674 156.37 15.7063 155.833 16.1525C155.298 16.5741 154.64 16.8078 153.959 16.8172C153.279 16.8266 152.614 16.6112 152.068 16.2045C151.559 15.8071 151.187 15.2603 151.005 14.6407C151 14.6222 150.988 14.6061 150.972 14.5954C150.956 14.5847 150.937 14.58 150.918 14.5822Z" fill="#8316B5"/>
<path d="M161.145 14.2768C161.066 14.2768 160.991 14.2456 160.935 14.19C160.879 14.1344 160.847 14.059 160.846 13.9801C160.865 13.1368 160.696 12.3 160.35 11.5305C160.033 10.8546 159.571 10.2565 158.997 9.77827C158.395 9.29208 157.702 8.93124 156.959 8.71699C156.132 8.4764 155.275 8.35676 154.414 8.36178C154.143 8.36178 153.835 8.37478 153.504 8.40077C153.205 8.42056 152.909 8.46622 152.618 8.53722C152.573 8.54804 152.526 8.5482 152.481 8.53768C152.436 8.52716 152.394 8.50626 152.358 8.47662C152.322 8.44699 152.294 8.40943 152.275 8.36694C152.256 8.32446 152.248 8.27819 152.25 8.23183L152.408 5.2884C152.412 5.21236 152.445 5.14072 152.5 5.08831C152.555 5.03591 152.629 5.00674 152.705 5.00684H157.686C157.765 5.00684 157.841 5.0381 157.896 5.09375C157.952 5.14939 157.983 5.22486 157.983 5.30356C157.983 5.38226 157.952 5.45773 157.896 5.51338C157.841 5.56903 157.765 5.60029 157.686 5.60029H152.986L152.865 7.8788C153.054 7.84631 153.251 7.82248 153.459 7.80732C153.805 7.78133 154.128 7.76617 154.414 7.76617C155.332 7.76112 156.246 7.88953 157.128 8.14736C157.948 8.38329 158.713 8.78258 159.376 9.32127C160.018 9.8522 160.535 10.5176 160.892 11.2706C161.276 12.1197 161.465 13.044 161.446 13.9757C161.447 14.0154 161.439 14.0546 161.424 14.0913C161.409 14.128 161.387 14.1613 161.359 14.1893C161.331 14.2173 161.298 14.2394 161.261 14.2545C161.224 14.2695 161.185 14.2771 161.145 14.2768Z" fill="#8316B5"/>
<path d="M161.145 14.4936C161.009 14.4936 160.878 14.4396 160.782 14.3434C160.685 14.2472 160.631 14.1166 160.63 13.9803C160.648 13.1701 160.486 12.366 160.156 11.626C159.85 10.9783 159.407 10.4054 158.856 9.94739C158.277 9.47908 157.61 9.13214 156.894 8.92727C156.087 8.69275 155.251 8.57603 154.412 8.58072C154.148 8.58072 153.846 8.59372 153.517 8.61754C153.232 8.63797 152.948 8.68217 152.67 8.74966C152.592 8.76858 152.511 8.76923 152.432 8.75158C152.354 8.73393 152.28 8.69844 152.218 8.64787C152.154 8.59569 152.105 8.52916 152.072 8.45382C152.04 8.37848 152.026 8.2965 152.031 8.21469L152.19 5.26909C152.197 5.13789 152.254 5.01445 152.349 4.92419C152.445 4.83394 152.571 4.78374 152.703 4.78394H157.684C157.821 4.78394 157.951 4.83802 158.047 4.93428C158.144 5.03055 158.198 5.16111 158.198 5.29725C158.198 5.43339 158.144 5.56395 158.047 5.66022C157.951 5.75648 157.821 5.81056 157.684 5.81056H153.186L153.088 7.61907C153.201 7.60608 153.318 7.59308 153.435 7.58442C153.788 7.55843 154.115 7.54327 154.407 7.54327C155.347 7.53871 156.282 7.67003 157.184 7.93313C158.032 8.17749 158.822 8.59079 159.506 9.14818C160.173 9.69944 160.709 10.3918 161.076 11.1755C161.474 12.0538 161.671 13.0098 161.652 13.9738C161.653 14.1097 161.601 14.2407 161.506 14.338C161.411 14.4354 161.281 14.4913 161.145 14.4936ZM154.414 8.14538C155.293 8.1404 156.169 8.26297 157.013 8.50925C157.784 8.731 158.503 9.10595 159.127 9.61169C159.726 10.1093 160.208 10.7326 160.539 11.4375C160.899 12.2359 161.076 13.1047 161.057 13.9803C161.06 13.9995 161.07 14.017 161.085 14.0297C161.099 14.0423 161.118 14.0493 161.138 14.0493C161.157 14.0493 161.176 14.0423 161.191 14.0297C161.206 14.017 161.216 13.9995 161.219 13.9803C161.238 13.0806 161.055 12.1881 160.684 11.3682C160.344 10.6423 159.848 10.0004 159.231 9.48823C158.593 8.96862 157.856 8.58332 157.065 8.35547C156.204 8.10368 155.311 7.97819 154.414 7.98294C154.132 7.98294 153.818 7.9981 153.474 8.02409C153.275 8.03925 153.082 8.06308 152.9 8.0934L152.634 8.13888L152.781 5.38388H157.678C157.689 5.38417 157.699 5.38231 157.709 5.37842C157.719 5.37452 157.728 5.36866 157.736 5.36119C157.744 5.35372 157.75 5.34479 157.754 5.33492C157.758 5.32506 157.76 5.31445 157.76 5.30375C157.76 5.2823 157.751 5.26191 157.735 5.24694C157.72 5.23197 157.699 5.2236 157.678 5.22361H152.696C152.676 5.22358 152.656 5.23142 152.641 5.24553C152.626 5.25963 152.617 5.27892 152.616 5.29942L152.458 8.24502C152.458 8.25748 152.46 8.26988 152.465 8.28119C152.471 8.2925 152.479 8.30237 152.488 8.30999C152.498 8.31804 152.509 8.3238 152.521 8.3268C152.533 8.32981 152.546 8.32998 152.558 8.32731C152.86 8.25432 153.168 8.20651 153.478 8.18436C153.836 8.16054 154.137 8.14538 154.414 8.14538Z" fill="#8316B5"/>
<path d="M158.085 17.773C158.088 17.8538 158.074 17.9344 158.043 18.0091C158.012 18.0839 157.965 18.1511 157.906 18.2061C157.848 18.2619 157.781 18.3057 157.706 18.3351C157.632 18.3645 157.552 18.3788 157.472 18.3772C157.39 18.378 157.308 18.3626 157.232 18.3318C157.159 18.3024 157.091 18.2598 157.033 18.2061C156.976 18.1536 156.93 18.0903 156.899 18.0199C156.866 17.9462 156.85 17.8664 156.851 17.786C156.85 17.7062 156.867 17.6273 156.899 17.5542C156.93 17.4824 156.976 17.4177 157.033 17.3636C157.09 17.3072 157.158 17.2624 157.232 17.2315C157.308 17.1989 157.39 17.1827 157.472 17.1838C157.552 17.1819 157.632 17.1958 157.706 17.2248C157.78 17.2538 157.848 17.2973 157.906 17.3528C157.963 17.4065 158.009 17.4716 158.04 17.544C158.071 17.6163 158.086 17.6943 158.085 17.773Z" fill="#8316B5"/>
<path d="M159.998 18.7737C159.942 18.92 159.874 19.0613 159.794 19.196C159.723 19.3154 159.632 19.4222 159.526 19.5123C159.418 19.6017 159.293 19.6694 159.16 19.7115C158.999 19.7585 158.831 19.7811 158.664 19.7787C158.567 19.7784 158.47 19.7719 158.373 19.7592C158.287 19.7488 158.201 19.7329 158.116 19.7115L158.226 18.8712C158.279 18.8874 158.332 18.9004 158.386 18.9101C158.44 18.9191 158.494 18.9242 158.549 18.9253C158.609 18.9304 158.669 18.9236 158.726 18.9054C158.783 18.8872 158.837 18.8579 158.882 18.8192C158.961 18.7309 159.022 18.6278 159.06 18.5159L159.158 18.2669L157.89 15.2823H158.999L159.675 17.2316H159.692L160.297 15.2823H161.356L159.998 18.7737Z" fill="#8316B5"/>
<path d="M161.631 18.3101V15.2778H162.629V18.3101H161.631Z" fill="#8316B5"/>
<path d="M163.31 18.3101V13.7054H164.328V18.3101H163.31Z" fill="#8316B5"/>
<path d="M134.95 19.1091H128.293C128.251 19.1155 128.207 19.1125 128.165 19.1004C128.124 19.0884 128.085 19.0675 128.053 19.0392C128.02 19.011 127.994 18.976 127.976 18.9367C127.958 18.8973 127.948 18.8546 127.948 18.8113C127.948 18.768 127.958 18.7253 127.976 18.686C127.994 18.6466 128.02 18.6116 128.053 18.5834C128.085 18.5551 128.124 18.5342 128.165 18.5222C128.207 18.5101 128.251 18.5072 128.293 18.5135H134.95C134.993 18.5072 135.036 18.5101 135.078 18.5222C135.12 18.5342 135.158 18.5551 135.191 18.5834C135.224 18.6116 135.25 18.6466 135.268 18.686C135.286 18.7253 135.295 18.768 135.295 18.8113C135.295 18.8546 135.286 18.8973 135.268 18.9367C135.25 18.976 135.224 19.011 135.191 19.0392C135.158 19.0675 135.12 19.0884 135.078 19.1004C135.036 19.1125 134.993 19.1155 134.95 19.1091Z" fill="#FF9B0F"/>
<path d="M137.126 17.9373H130.86C130.818 17.9436 130.774 17.9407 130.732 17.9286C130.691 17.9166 130.652 17.8957 130.62 17.8674C130.587 17.8392 130.56 17.8042 130.542 17.7649C130.524 17.7255 130.515 17.6828 130.515 17.6395C130.515 17.5962 130.524 17.5535 130.542 17.5141C130.56 17.4748 130.587 17.4398 130.62 17.4116C130.652 17.3833 130.691 17.3624 130.732 17.3504C130.774 17.3383 130.818 17.3354 130.86 17.3417H137.126C137.169 17.3354 137.213 17.3383 137.254 17.3504C137.296 17.3624 137.334 17.3833 137.367 17.4116C137.4 17.4398 137.426 17.4748 137.444 17.5141C137.462 17.5535 137.471 17.5962 137.471 17.6395C137.471 17.6828 137.462 17.7255 137.444 17.7649C137.426 17.8042 137.4 17.8392 137.367 17.8674C137.334 17.8957 137.296 17.9166 137.254 17.9286C137.213 17.9407 137.169 17.9436 137.126 17.9373Z" fill="#4AB5E2"/>
<path d="M166.279 5.99471C166.006 5.99633 165.732 5.96727 165.465 5.90807C164.454 5.69149 163.648 5.02223 163.063 3.93279C162.931 3.69056 162.736 3.48859 162.498 3.34827C162.261 3.20795 161.99 3.13451 161.714 3.13574H156.299C156.213 3.13574 156.13 3.10152 156.069 3.04059C156.008 2.97966 155.974 2.89702 155.974 2.81086C155.974 2.7247 156.008 2.64207 156.069 2.58114C156.13 2.52021 156.213 2.48598 156.299 2.48598H161.692C162.088 2.48005 162.479 2.58294 162.82 2.78343C163.162 2.98392 163.442 3.27434 163.631 3.62307C164.127 4.55006 164.77 5.08937 165.597 5.2713C167.141 5.61351 169.377 4.69518 172.24 2.54229C172.274 2.51289 172.313 2.49074 172.355 2.47722C172.398 2.4637 172.443 2.4591 172.487 2.46371C172.532 2.46832 172.575 2.48204 172.614 2.50401C172.653 2.52598 172.686 2.55574 172.713 2.59141C172.74 2.62709 172.759 2.66791 172.77 2.71135C172.78 2.75479 172.781 2.7999 172.774 2.84387C172.766 2.88784 172.749 2.92972 172.724 2.9669C172.699 3.00407 172.667 3.03575 172.63 3.05994C170.022 5.0244 167.932 5.99471 166.279 5.99471Z" fill="#49CA77"/>
<path d="M170.401 5.89071C170.341 5.89112 170.283 5.87493 170.232 5.84394C170.181 5.81295 170.14 5.76839 170.113 5.71527C169.515 4.56519 168.674 3.8981 167.687 3.78981C167.239 3.74451 166.786 3.80564 166.366 3.96823C165.946 4.13082 165.57 4.39027 165.27 4.72547C164.739 5.3579 164.167 5.67845 163.576 5.67845C162.989 5.67845 162.404 5.34707 161.889 4.7233C161.339 4.06271 160.459 4.18616 160.451 4.18616H160.403H154.241C154.155 4.18616 154.072 4.15193 154.011 4.09101C153.95 4.03008 153.916 3.94744 153.916 3.86128C153.916 3.77511 153.95 3.69248 154.011 3.63155C154.072 3.57062 154.155 3.53639 154.241 3.53639H160.375C160.568 3.51474 161.655 3.43027 162.38 4.30529C162.653 4.63233 163.08 5.02219 163.572 5.02435C163.964 5.02435 164.366 4.78178 164.769 4.30312C165.14 3.88753 165.603 3.5655 166.122 3.36336C166.641 3.16121 167.2 3.08469 167.754 3.14004C168.601 3.23317 169.796 3.70317 170.684 5.41205C170.723 5.48803 170.729 5.57595 170.703 5.65694C170.678 5.73793 170.621 5.80553 170.546 5.84522C170.502 5.87213 170.452 5.88775 170.401 5.89071Z" fill="#DE4747"/>
</g>
<defs>
<clipPath id="clip0_1448_2032">
<rect width="173.789" height="25" fill="white" transform="translate(0 0.5)"/>
</clipPath>
</defs>
</svg>
